<?xml version="1.0" encoding="utf-8"?>
<!-- Generator: Adobe Illustrator 12.0.1, SVG Export Plug-In . SVG Version: 6.00 Build 51448)  -->
<!DOCTYPE svg PUBLIC "-//W3C//DTD SVG 1.1 Tiny//EN" "http://www.w3.org/Graphics/SVG/1.1/DTD/svg11-tiny.dtd" [
<!ENTITY ns_svg "http://www.w3.org/2000/svg">
<!ENTITY ns_xlink "http://www.w3.org/1999/xlink">
]>
<svg  version="1.1" baseProfile="tiny" xmlns="&ns_svg;" xmlns:xlink="&ns_xlink;" width="240" height="320"
      viewBox="0 0 240 320" xml:space="preserve">
    <g id="Layer_1">
        <rect x="0" y="0" fill="#A5D9FF" width="240" height="320"/>
        <g>
            <path fill="#FFE8A9" d="M144.828,279.083c0.697,0.771,1.555,1.266,2.414,1.489c-0.263-0.806-0.518-1.622-0.801-2.315
            c-0.626-1.536-1.711-3.258-2.023-4.556C143.092,274.964,143.266,277.354,144.828,279.083z"/>
            <path fill="#FFE8F9" d="M22.131,235.032c0.207,0.228,0.637,0.504,1.019,0.799C22.884,235.2,21.756,234.619,22.131,235.032z"/>
            <path fill="#FFE8A9" d="M162.639,294.744c0.556-0.502,0.191-1.812-0.816-2.927c-1.005-1.112-2.271-1.605-2.826-1.102
            c-0.56,0.502-0.195,1.812,0.81,2.924C160.812,294.753,162.081,295.248,162.639,294.744z"/>
            <path fill="#FFE8A9" d="M163.472,265.645c0.027-0.022,0.049-0.051,0.062-0.076c0.149,0.213,0.391,0.516,0.778,0.944
    c1.063,1.176,3.018,3.074,4.455,4.584c-1.088-1.825-2.469-4.242-3.531-5.418c-1.062-1.174-1.629-0.914-1.848-0.533
            c-0.048-0.025-0.073,0-0.04,0.097C163.234,265.523,163.291,265.81,163.472,265.645z"/>
            <path fill="#FFE8A9" d="M22.121,236.434c0.443,0.625,0.967,1.222,1.517,0.726c0.488-0.443,0.055-0.907-0.489-1.329
            c0.091,0.22,0.08,0.449-0.133,0.639C22.73,236.729,22.406,236.636,22.121,236.434z"/>
            <path fill="#FFE8A9" d="M196.028,37.647c-0.804,0.195-3.373-0.226-4.905,0.399c-0.021,0.009-0.039,0.02-0.061,0.029
            c1.072,0.605,2.056,1.298,2.947,2.071C194.616,39.266,195.285,38.426,196.028,37.647z"/>
            <path fill="#0000FF" d="M220.521,76.356c-4.694,1.915-9.603,1.832-14.069,0.277c0.853,1.907,1.684,3.83,2.498,5.759
    c0.68-0.317,1.35-0.61,1.982-0.868c4.459-1.819,6.839-1.848,7.666,0.179c0.362,0.887,0.437,2.198,0.031,3.543
    c1.062-0.206,2.157-0.324,3.287-0.324c2.179,0,4.384,0.403,6.522,1.126c0.226-2.179,1.642-3.859,3.358-3.859
    c1.876,0,3.396,2.002,3.396,4.473c0,0.931-0.219,1.795-0.586,2.511c2.046,1.421,3.886,3.141,5.393,5.066V67.844
    c-1.727-2.22-3.514-4.418-5.343-6.598C232.042,67.908,226.818,73.787,220.521,76.356z M231.982,67.525
    c2.054-0.838,6.667-0.621,7.49,1.398c0.824,2.019-2.771,4.296-4.826,5.134c-2.054,0.838-3.829,0.751-4.652-1.267
            S229.929,68.363,231.982,67.525z"/>
            <path fill="#FFE8A9" d="M22.121,236.434c-0.229-0.323-0.432-0.657-0.604-0.846C21.186,235.221,21.578,236.045,22.121,236.434z"/>
            <path fill="#06E8EE" d="M17.111,214.966c-0.759-1.86,1.623-0.796,6.839-2.857c-0.546-1.054-1.056-2.155-1.526-3.306
                  c-3.583-8.784-3.578-17.305-0.565-24.598c-1.11-1.658-2.043-3.465-2.768-5.419c-1.55,0.145-3.175,0.26-4.716,0.26
                  c-2.728,0-4.922-0.357-6.466-0.609c-1.641,0.377-2.546,0.638-2.546,0.11s0.905-0.376,2.546-0.11
                  c1.544-0.353,3.739-0.811,6.466-0.811c1.44,0,2.953,0.13,4.412,0.302c-0.19-0.567-0.36-1.146-0.516-1.736
                  c-0.217,0.013-0.435,0.027-0.653,0.027c-5.118,0-6.746-3.292-6.746-5.081c0-1.763,1.582-0.11,6.5-0.056
                  c-0.095-1.038-0.145-2.102-0.145-3.189c0-1.018,0.048-2.01,0.131-2.984c-0.792,0.434-1.623,0.823-2.467,1.168
                  c-4.998,2.039-8.661,1.81-10.699-3.188c-2.04-5-1.059-11.348,3.938-13.386c2.806-1.145,6.341-0.711,9.262,0.773
                  c-0.102-0.451-0.191-0.903-0.288-1.355c-0.689-0.157-1.141-0.404-1.141-0.684c0-0.242,0.333-0.459,0.866-0.615
                  c-0.561-2.807-1.011-5.628-1.344-8.452c-3.047-0.446-5.867-1.744-8.273-3.754c-0.749,0.716-1.519,1.279-2.254,1.579
                  c-0.804,0.328-1.671,0.386-2.542,0.257c0.502,2.823,1.05,5.646,1.64,8.464c-1.375,0.218-2.724,0.515-4.056,0.85v53.336
                  c2.143,0.255,2.688,1.152,2.688,4.125c0,2.971-0.544,7.314-2.688,9.129v4.228c7.707,3.467,16.106,3.766,24.039,0.729
                  C20.094,218.766,17.76,216.558,17.111,214.966z M12.622,188.591c-0.204-0.5,0.974-1.453,2.63-2.129
            c1.656-0.676,3.164-0.818,3.368-0.318s-0.973,1.455-2.628,2.131C14.335,188.951,12.826,189.091,12.622,188.591z"/>
            <path fill="#06E8EF" d="M18.297,92.591c1.425-0.581,2.885-1.012,4.358-1.32c0.665-1.091,1.487-2.044,2.411-2.605
    c1.299-2.078,2.677-4.122,4.11-6.14c-3.616,1.44-6.89,2.471-7.666,0.569c-0.955-2.342,3.145-6.005,7.648-7.842
    c2.196-0.896,4.556-1.383,6.511-1.378c1.923-2.475,3.862-4.925,5.754-7.368c3.141-4.057,6.448-7.875,9.99-11.433
    c0.141-4.729,2.475-9.109,6.407-11.563c-0.554-0.979-0.892-2.108-0.892-3.014c0-2.048,1.725-3.184,3.773-3.184
    c1.716,0,4.127,0.803,4.861,2.27c0.694-4.392,3.433-8,8.586-10.103c5.883-2.399,10.745-1.137,14.416,2.558
    c10.51-4.042,21.071-7.37,31.587-8.23c0.476-7.952,4.457-15.556,10.427-20.686c-0.694-1.078-1.46-2.119-2.287-3.12l-61.648,0
    c0.259,0.84,0.665,1.612,1.254,2.264c0.684,0.755,1.703,1.439,2.895,2.033c-1.375,3.785-1.709,7.761-0.915,11.639
    c-4.298,2.154-8.504,4.553-12.584,7.166c0.515-4.179-0.509-8.64-3.121-11.53c-4.65-5.146-12.749-3.551-17.898,1.104
    c-5.145,4.65-3.819,9.177,0.831,14.324c2.121,2.345,4.605,4.445,7.167,5.605c-1.317,1.093-2.618,2.207-3.886,3.352
    c-3.477,3.141-6.755,6.507-9.841,10.035c-1.367-0.539-2.747-0.99-4.137-1.366c0.043-0.679-0.135-1.331-0.582-1.826
    c-1.013-1.121-2.951-1.017-4.329,0.229c-0.184,0.167-0.346,0.348-0.493,0.538C13.986,42.73,6.827,43.917,0,47.192v67.455
    c0.632-2.766,1.919-5.302,3.857-7.423C6.407,100.808,11.584,95.33,18.297,92.591z M73.887,23.559
    c0.599-0.245,1.246-0.054,1.441,0.426c0.196,0.481-0.132,1.069-0.732,1.314c-0.6,0.244-1.246,0.054-1.442-0.427
    C72.958,24.391,73.287,23.803,73.887,23.559z M47.42,27.061c0-0.039,0.003-0.069,0.005-0.099c-0.31-0.22-0.489-0.467-0.159-0.467
    c0.346,0,0.41,0.27,0.378,0.496c0.385-0.198,0.831-0.294,0.831,0.07c0,0.364-0.444,0.254-0.829,0.04
    c0.029,0.209-0.04,0.458-0.381,0.458c-0.329,0-0.152-0.233,0.157-0.439C47.423,27.101,47.42,27.085,47.42,27.061z M42.378,35.442
    c4.068-1.66,7.664,1.033,9.324,5.102s-0.532,4.818-4.6,6.478c-4.069,1.66-7.866,3.353-9.525-0.716
    C35.917,42.238,38.31,37.102,42.378,35.442z M30.506,54.68c1.485-0.606,6.948,2.749,7.554,4.233
    c0.606,1.487-1.498,6.366-2.982,6.972c-1.486,0.606-4.297-2.268-4.903-3.754C29.568,60.645,29.02,55.286,30.506,54.68z
    M15.756,81.257c-0.6,0.245-1.207,0.152-1.354-0.208c-0.147-0.36,0.221-0.851,0.821-1.096c0.602-0.246,1.208-0.151,1.354,0.208
    C16.726,80.521,16.358,81.011,15.756,81.257z M12.083,52.18c2.161-0.881,5.861-0.991,6.743,1.17
    c0.882,2.162-0.953,6.846-3.114,7.727c-2.163,0.882-5.361-1.748-6.243-3.91C8.588,55.005,9.92,53.062,12.083,52.18z M5.152,82.584
    c1.876,0,6.718-1.503,6.718-0.991c0,0.512-4.841,4.291-6.718,4.291c-1.875,0-1.978-3.778-1.978-4.291
            C3.174,81.081,3.276,82.584,5.152,82.584z"/>
            <path fill="#06E8FD" d="M240,135.52c-3.072,1.174-6.702,0.388-9.808-1.472c-0.382,0.13-1.041,0.265-1.819,0.416
    c-1.487,0.651-3.394,1.579-4.535,2.044c-0.417,0.17-0.703,0.266-0.899,0.319c0.018,0.016,0.031,0.038,0.041,0.063
    c0.073,0.177-0.152,0.142-0.328-0.014c-0.079,0-0.09-0.027-0.059-0.055c-0.224-0.26-0.261-0.745,0.879-1.21
    c1.143-0.466,3.275-0.836,4.901-1.148c0.601-0.263,1.134-0.479,1.52-0.602c-2.701-1.696-4.969-4.191-6.064-6.877
    c-0.15-0.37-0.274-0.732-0.374-1.087c-0.514,0.043-1.026,0.073-1.538,0.073c-0.46,0-0.911-0.029-1.36-0.065
    c0.246,4.884,0.073,9.752-0.596,14.59c-0.55,3.986-1.333,7.951-2.322,11.868c2.346-0.923,2.449-0.649,3.463,1.837
    c1.17,2.867,1.79,4.346-1.799,5.811c-2.165,0.883-3.113,0.636-3.782-0.322c-0.146,0.441-0.309,0.879-0.459,1.319
    c1.027-0.162,2.114-0.239,3.232-0.239c5.584,0,9.735,1.818,9.735,7.4c0,2.171-0.635,4.511-1.731,6.563
    c1.943-1.082,2.909-1.882,3.638-0.098c0.94,2.307,0.52,6.534-2.811,7.893c-1.984,0.81-5.421,0.771-8.081,0.125
    c-0.837,2.115-2.032,4.192-3.522,6.191c0.253-0.063,0.534-0.104,0.837-0.104c1.023,0,1.852,0.414,1.852,0.926
    c0,0.385-0.468,0.715-1.134,0.855c1.464,1.541,2.637,3.307,3.426,5.242c3.775,9.254-2.117,19.939-13.805,24.707
    c-9.254,3.774-19.469,2.737-25.201-2.447c0.557,1.582,0.86,3.227,0.86,4.88c0,8.766-8.322,15.487-19.391,15.487
    c-4.854,0-9.463-1.294-13.109-3.485c-1.29,3.609-3.446,6.887-6.383,9.647c0.185,0.342,0.361,0.706,0.525,1.107
    c2.369,5.809,0.603,13.061-6.286,15.87c-6.89,2.811-17.739,0.705-20.108-5.103c-0.464-1.138-0.525-2.235-0.274-3.282
    c-5.537-0.381-10.847-2.024-15.139-4.987c-0.484,0.382-0.709,0.848-0.709-0.091c0-0.123,0.005-0.266,0.013-0.415
    c-0.503-0.374-0.989-0.769-1.459-1.182c-1.703,1.477-3.95,2.409-6.673,2.409c-2.477,0-5.181-0.767-7.585-2.017
    c1.05,2.941,0.931,5.619-0.334,6.136c-1.351,0.551-3.497-1.577-4.791-4.75c-1.041-2.55-1.214-4.997-0.544-6.148
    c-0.869-1.275-1.381-2.644-1.381-4.024c0-1.076,0.314-1.987,0.864-2.755c-4.942-2.424-9.122-6.06-11.564-10.604
    c-0.901,0.439-1.815,0.855-2.748,1.236c-10.869,4.434-21.458,3.859-29.795-1.206c1.146,1.224,2.303,2.433,3.481,3.617
    c-1.226,0.556-2.39,1.284-3.424,2.221c-5.425,4.904-1.746,10.401,0.517,12.907c2.262,2.502,6.197,5.428,11.622,0.522
    c1.503-1.358,2.685-2.936,3.58-4.562c1.219,0.983,2.447,1.94,3.691,2.873c-1.173,0.662-2.271,1.433-3.261,2.327
    c-9.529,8.611-7.205,25.881,3.669,37.913c10.876,12.029,26.368,14.473,35.897,5.862c2.694-2.438,4.713-5.581,5.976-9.105
    c3.138,0.962,6.239,1.512,9.225,1.601c0.386,3.5,1.846,7.664,3.691,9.708c3.1,3.431,8.389,2.089,10.769-0.058
    c2.368-2.145-0.628-2.873-3.732-6.304c-1.022-1.133-2.18-2.693-3.356-4.201c2.875-0.819,5.529-2.227,7.841-4.316
    c2.645-2.392,4.664-5.507,6.084-9.078c1.639,0.009,3.274-0.016,4.909-0.061c-0.865,1.228-0.745,2.479,1.269,4.707
    c3.338,3.695,4.852,2.298,7.806-0.368c2.561-2.314,2.845-2.559,0.701-4.989c5.168-0.517,10.301-1.307,15.357-2.387
    c9.646-2.062,18.851-5.619,27.658-10.329c0.104,0.67,0.36,1.256,0.778,1.717c2.271,2.512,8.469,0.608,13.846-4.252
    c4.253-3.844,6.708-8.38,6.43-11.352c2.859-2.248,5.667-4.613,8.438-7.063c0.518,0.824,1.071,1.582,1.657,2.229
    c4.147,4.591,9.547,3.549,11.634,1.663c2.087-1.887,1.008-4.749-3.143-9.342c-0.586-0.65-1.236-1.333-1.916-2.017
    c1.974-1.828,3.938-3.672,5.864-5.54c0.078,6.081,2.128,12.045,6.496,16.88c1.322,1.462,2.823,2.785,4.461,3.96V135.52z
    M227.868,154.094c-1.702,0.694-3.527,0.169-4.075-1.173c-0.546-1.34,0.391-2.992,2.093-3.687s3.526-0.168,4.072,1.171
    C230.506,151.748,229.57,153.399,227.868,154.094z M54.212,253.376c-0.524,0.214-1.102,0.647-1.595,1.116
    c-0.009,0.782-0.109,1.464-0.681,1.697c-0.992,0.405-0.344-0.721,0.681-1.697c0.014-1.223-0.203-2.695,0.786-3.099
    c1.622-0.661,0.205-3.694,1.673-4.293C56.544,246.502,55.834,252.714,54.212,253.376z M50.51,238.553
    c-1.676,0-2.201,0.521-2.334,0.746c-0.038,0.148-0.068,0.114,0,0c0.022-0.096,0.047-0.257,0.047-0.527
    c0-1.535-0.784-5.772,2.287-5.772c3.07,0,8.095,4.237,8.095,5.772C58.605,240.306,53.58,238.553,50.51,238.553z M95.944,271.367
    c-1.414,0-1.288-2.039-1.137-4.068c-1.915,0.564-4.855,0.996-6.795,1.788c-1.77,0.722-2.1,1.495-2.145,1.791
    c0.025,0.175-0.021,0.152,0,0c-0.016-0.109-0.061-0.292-0.176-0.576c-0.662-1.623-3.315-5.759-0.072-7.082
    c2.36-0.963,6.773,0.001,9.259,1.223c-0.135-2.228-0.587-4.711,1.066-4.711c1.882,0,6.586,3.224,6.586,5.619
    S97.826,271.367,95.944,271.367z M147.448,256.265c-1.11,0.453-0.924,2.35-1.512,0.909s-1.505-5.127-0.395-5.58
    c1.111-0.453,3.802,2.51,4.39,3.95C150.519,256.985,148.559,255.812,147.448,256.265z M227.499,215.913
    c-0.273,0.105-1.256,0.191-1.256-0.768s0.982-0.604,1.256-0.369c0.358-0.234,1.502-0.59,1.502,0.369
            S227.857,216.018,227.499,215.913z"/>
            
            <ellipse transform="matrix(0.6705 0.7419 -0.7419 0.6705 31.4596 3.5772)" fill="#06E8A9" cx="11.703" cy="37.204" rx="4.163" ry="1.256"/>
            <path fill="#06E8A9" d="M167.004,7.525c1.383,1.529,8.198,1.934,9.729,0.552c1.057-0.956,2.175-5.1,2.31-8.077l-9.693,0
            C167.822,1.429,165.633,6.009,167.004,7.525z"/>
            
            <ellipse transform="matrix(-0.6706 -0.7418 0.7418 -0.6706 364.1044 235.0624)" fill="#06E8A9" cx="234.239" cy="36.696" rx="1.509" ry="1.207"/>
            <path fill="#06E8A9" d="M191.752,1.974c-4.187,3.786-0.482,7.634,3.307,11.822c3.262,3.609,5.103,5.82,8.229,3.943
    c0.072-0.499,0.235-1.041,0.523-1.625c1.001-2.025,3.247-4.028,4.814-5.069c0.9-2.726,0.55-5.601-1.644-8.027
            C205.678,1.576,203.959,0.566,202.1,0h-6.87C193.954,0.411,192.763,1.061,191.752,1.974z"/>
            <path fill="#EC06CF" d="M14.485,225.167c0.228,0.558,1.07-0.109,2.642-1.213C15.278,224.378,14.258,224.61,14.485,225.167z"/>
            <path fill="#EC06CF" d="M172.199,14.203c2.228-0.909,4.332-1.733,3.863-2.883c-0.469-1.148-1.714,1.781-3.942,2.689
            c-0.459,0.188-0.786,0.216-1.024,0.164C170.946,14.729,170.59,14.86,172.199,14.203z"/>
            <path fill="#EC06CF" d="M171.048,13.366c-0.373-0.913-0.878,0.602,0.048,0.807C171.15,13.959,171.178,13.686,171.048,13.366z"/>
            <path fill="#ECFFCF" d="M15.548,250.917c-4.323,1.763-4.306,2.228-2.652,6.282c1.653,4.053,4.449,10.482,8.772,8.72
            c4.323-1.764,2.622-8.641,0.968-12.693C20.982,249.171,19.872,249.154,15.548,250.917z"/>
            <path fill="#ECFFCF" d="M85.867,270.877C85.846,271.03,85.892,271.052,85.867,270.877L85.867,270.877z"/>
            <path fill="#23FFDF" d="M196.266,37.399c-0.002-0.012,0.001-0.021-0.004-0.034c-0.308-0.753-3.713-1.297-5.628-0.516
    c-0.364,0.148-0.635,0.345-0.865,0.558c0.446,0.208,0.876,0.432,1.294,0.668c0.021-0.009,0.039-0.021,0.061-0.029
    c1.532-0.625,4.102-0.205,4.905-0.399c-0.743,0.779-1.412,1.618-2.019,2.5c6.902,5.982,8.471,16.626,5.384,26.443
    c-1.163,3.7-2.829,6.768-4.921,9.158c3.103,3.544,5.878,7.31,8.18,11.284c1.381,2.39,2.519,4.908,3.464,7.521
    c2.032-3.575,5.054-6.469,8.734-8.121c-0.715-0.107-2.664-1.3-4.114-1.3c-1.813,0-2.345,1.861-2.345,1.148
    c0-0.713,0.531-2.282,2.345-2.282c1.812,0,4.398,1.569,4.398,2.282c0,0.013-0.006,0.019-0.008,0.03
    c1.111-0.475,2.284-0.829,3.502-1.064c0.405-1.345,0.331-2.656-0.031-3.543c-0.827-2.027-3.207-1.998-7.666-0.179
    c-0.633,0.258-1.303,0.551-1.982,0.868c-0.814-1.929-1.646-3.852-2.498-5.759c4.467,1.554,9.375,1.638,14.069-0.277
    c6.298-2.569,11.521-8.448,14.137-15.11c2.097-5.343,2.519-11.189,0.458-16.239c-2.741-6.718-9.572-11.308-17.044-12.977
    c0.079-0.915-0.062-1.92-0.463-2.904c-1.064-2.609-3.533-4.068-5.514-3.261c-1.812,0.74-2.584,3.124-1.885,5.522
    c-0.434,0.026-0.862,0.079-1.291,0.126c-2.113,0.235-4.169,0.714-6.081,1.494C200.274,34.055,198.079,35.564,196.266,37.399z
    M200.606,42.349c-1.024,0-1.854-1.66-1.854-3.706c0-2.047,0.829-3.706,1.854-3.706c1.023,0,1.854,1.659,1.854,3.706
    C202.46,40.689,201.63,42.349,200.606,42.349z M207.362,58.447c0,1.088-1.982,1.061-4.093,1.061c-1.524,0-1.19,0.012-0.887-0.39
    c-0.682-0.473,0.229-1.536,0.229-0.671c0,0.302-0.112,0.515-0.229,0.671c0.178,0.122,0.452,0.207,0.887,0.207
            C205.38,59.325,207.362,57.359,207.362,58.447z"/>
            <ellipse transform="matrix(0.3776 0.926 -0.926 0.3776 68.827 -53.5409)" fill="#ECFFCF" cx="74.241" cy="24.428" rx="0.939" ry="1.174"/>
            <path fill="#11CCFF" d="M47.102,47.022c4.068-1.66,6.26-2.41,4.6-6.478s-5.255-6.761-9.324-5.102
            c-4.069,1.66-6.461,6.795-4.801,10.864C39.236,50.375,43.033,48.682,47.102,47.022z"/>
            <path fill="#55AAFF" d="M120.152,23.807c-10.516,0.86-21.077,4.188-31.587,8.23c-3.67-3.695-8.533-4.958-14.416-2.558
    c-5.153,2.102-7.892,5.711-8.586,10.103c0.141,0.281,0.227,0.585,0.227,0.915c0,2.047-3.042,5.242-5.087,5.242
    c-1.143,0-2.183-0.994-2.881-2.228c-3.933,2.454-6.266,6.834-6.407,11.563c-3.542,3.558-6.849,7.376-9.99,11.433
    c-1.892,2.443-3.831,4.894-5.754,7.368c-1.956-0.005-4.315,0.482-6.511,1.378c-4.503,1.837-8.603,5.5-7.648,7.842
    c0.776,1.902,4.05,0.871,7.666-0.569c-1.433,2.018-2.812,4.062-4.11,6.14c0.556-0.338,1.148-0.535,1.764-0.535
    c0.378,0,0.794,0.082,1.228,0.218c1.328-4.079,4.019-7.308,7.738-9.072c4.194-4.365,10.212-7.098,16.568-7.098
    c1.636,0,3.245,0.188,4.803,0.532c2.352-1.804,4.825-3.489,7.363-5.1c-3.412-0.029-6.412-0.275-6.412-2.078
    c0-2.218,4.542-3.833,8.806-3.833c2.08,0,4.156,0.385,5.742,1.038c2.381-1.372,4.767-2.719,7.112-4.077
    c3.894-2.253,7.843-4.257,11.896-5.974c1.947-4.391,6.123-7.436,10.973-7.436c1.727,0,3.365,0.39,4.853,1.082
    c1.846-4.242,5.519-6.895,11.108-6.895c5.57,0,9.102,2.635,10.856,6.851c9.87,0.199,19.547,0.995,28.37,3.779
    c2.997-6.251,8.686-11.078,15.171-13.288c-1.022-0.561-2.053-1.112-3.101-1.637c1.179-3.424,1.617-7.383,1.251-11.791
    c-0.218-2.633-0.708-5.207-1.441-7.656c-1.979-6.608-5.761-12.297-10.987-15.695l-23.727,0c-1.566,0.892-3.047,1.939-4.422,3.12
    C124.608,8.251,120.628,15.855,120.152,23.807z M54.055,62.135c-0.568,0-1.029-0.276-1.029-0.618c0-0.34,0.461-0.617,1.029-0.617
    c0.57,0,1.03,0.277,1.03,0.617C55.085,61.859,54.625,62.135,54.055,62.135z M74.832,56.054c-1.407,0-2.737-3.265-2.737-4.672
    c0-1.407,1.33-5.938,2.737-5.938c1.406,0,4.729,4.532,4.729,5.938C79.561,52.789,76.237,56.054,74.832,56.054z M90.841,44.722
    c-3.854,0-7.497,0.117-7.497-3.735c0-3.853,3.643-7.231,7.497-7.231c3.852,0,5.879,3.378,5.879,7.231
    C96.721,44.839,94.693,44.722,90.841,44.722z M120.356,36.191c-0.568,0-1.03-0.369-1.03-0.824c0-0.455,0.461-0.823,1.03-0.823
            c0.568,0,1.029,0.369,1.029,0.823C121.386,35.823,120.924,36.191,120.356,36.191z"/>
            <path fill="#ECFFCF" d="M80.108,242.1c-0.67,1.151-0.497,3.599,0.544,6.148c1.294,3.173,3.44,5.301,4.791,4.75
            c1.265-0.517,1.384-3.194,0.334-6.136C83.439,245.648,81.386,243.976,80.108,242.1z"/>
            <path fill="#22AAFF" d="M142.1,222.903c0-0.908,0.11-1.815,0.313-2.712c-1.043,0.199-2.089,0.384-3.143,0.552
    c0.413,1.196,0.67,2.518,0.67,3.899c0,4.99-3.277,5.643-5.581,5.643c-2.303,0-6.771-0.652-6.771-5.643
    c0-0.952,0.164-1.873,0.444-2.749c-1.746,0.082-3.495,0.133-5.254,0.133c-1.978,0-3.915-0.107-5.816-0.31
    c-1.721,7.271-6.551,12.69-13.302,15.288c0.037,0.338,0.059,0.692,0.059,1.071c0,3.205-1.309,6.333-3.685,8.395
    c0.471,0.413,0.957,0.808,1.459,1.182c0.079-1.52,0.558-4.245,1.515-4.245c1.052,0,2.254,3.296,2.254,4.66
    s-1.203-0.238-2.254-0.238c-0.328,0-0.6,0.156-0.819,0.329c4.292,2.963,9.603,4.606,15.139,4.987
    c-0.251,1.047-0.19,2.145,0.274,3.282c2.369,5.808,13.218,7.913,20.108,5.103c6.889-2.81,8.655-10.062,6.286-15.87
    c-0.164-0.401-0.341-0.766-0.525-1.107c2.937-2.761,5.093-6.038,6.383-9.647C145.188,232.099,142.1,227.824,142.1,222.903z
    M124.412,234.11c-0.447,0.099-1.044-0.079-0.706-0.079C123.88,234.031,124.144,234.079,124.412,234.11
    c0.232-0.05,0.426-0.171,0.426-0.434c0-0.197-0.108-0.308-0.262-0.36c-0.325,0.058-0.661,0.148-0.87,0.148
            c-0.383,0,0.428-0.305,0.87-0.148c0.461-0.081,0.895-0.091,0.895,0.36C125.471,234.182,124.93,234.174,124.412,234.11z"/>
            <path fill="#ECFFCF" d="M223.454,125.897c0.1,0.355,0.224,0.717,0.374,1.087c1.096,2.686,3.363,5.181,6.064,6.877
    c-0.386,0.123-0.919,0.339-1.52,0.602c0.778-0.151,1.438-0.286,1.819-0.416c3.105,1.86,6.735,2.646,9.808,1.472v-18.994
    C236.022,121.658,229.713,125.363,223.454,125.897z M239.764,126.212c0,1.912-3.673,2.569-5.618,2.569
            c-1.944,0-3.357-0.658-3.357-2.569s1.413-3.616,3.357-3.616C236.091,122.596,239.764,124.301,239.764,126.212z"/>
            <path fill="#ECFFCF" d="M234.646,74.057c2.055-0.838,5.65-3.115,4.826-5.134c-0.823-2.019-5.437-2.236-7.49-1.398
            s-2.812,3.246-1.988,5.265S232.593,74.895,234.646,74.057z"/>
            
            <ellipse transform="matrix(-0.3777 -0.9259 0.9259 -0.3777 172.1483 419.0213)" fill="#ECFFCF" cx="226.877" cy="151.664" rx="2.624" ry="3.33"/>
            <path fill="#ECFFCF" d="M55.077,247.101c-1.468,0.599-0.051,3.632-1.673,4.293c-0.989,0.403-0.772,1.876-0.786,3.099
            c0.493-0.469,1.07-0.902,1.595-1.116C55.834,252.714,56.544,246.502,55.077,247.101z"/>
            <path fill="#ECFFCF" d="M51.937,256.19c0.572-0.233,0.672-0.915,0.681-1.697C51.593,255.469,50.945,256.595,51.937,256.19z"/>
            
            <ellipse transform="matrix(-0.3778 -0.9259 0.9259 -0.3778 -53.2867 125.4021)" fill="#ECFFCF" cx="15.49" cy="80.605" rx="0.704" ry="1.174"/>
            <path fill="#ECFFCF" d="M145.542,251.594c-1.11,0.453-0.193,4.14,0.395,5.58s0.401-0.456,1.512-0.909s3.07,0.72,2.483-0.721
            C149.344,254.104,146.653,251.141,145.542,251.594z"/>
            <path fill="#00FFFF" d="M4.958,136.994c0.735-0.3,1.505-0.863,2.254-1.579c2.406,2.01,5.226,3.309,8.273,3.754
    c0.333,2.824,0.784,5.646,1.344,8.452c0.511-0.149,1.206-0.243,1.975-0.243c1.567,0,2.84,0.384,2.84,0.858
    c0,0.473-1.272,0.859-2.84,0.859c-0.64,0-1.225-0.066-1.7-0.175c0.096,0.452,0.186,0.905,0.288,1.355
    c-2.921-1.485-6.456-1.918-9.262-0.773c-4.998,2.039-5.978,8.386-3.938,13.386c2.039,4.997,5.702,5.227,10.699,3.188
    c0.844-0.345,1.676-0.734,2.467-1.168c0.656-7.717,3.862-14.057,8.922-18.468c-0.029-0.162-0.047-0.327-0.047-0.498
    c0-1.267,0.834-2.295,1.865-2.295c0.455,0,0.866,0.208,1.19,0.542c0.827-0.532,1.687-1.024,2.583-1.468
    c-0.373-3.177-0.575-6.375-0.575-9.574c0-1.166,0.032-2.332,0.081-3.499c-1.76,0.765-3.958,1.061-6.116,1.061
    c-4.732,0-7.63-1.399-7.63-6.131c0-4.735,2.898-9.563,7.63-9.563c2.658,0,5.384,1.522,7.264,3.695
    c0.545-3.261,1.255-6.487,2.13-9.649c-2.327-1.37-4.186-3.359-5.474-5.788c-0.845,0.333-1.656,0.536-2.352,0.536
    c-3.297,0-5.915-4.358-5.915-7.204c0-1.431,0.663-3.565,1.741-5.334c-1.474,0.309-2.934,0.739-4.358,1.32
    c-6.712,2.738-11.89,8.217-14.439,14.633c-1.938,2.121-3.225,4.657-3.857,7.423v21.79c0.78,0.408,1.599,0.694,2.416,0.814
            C3.287,137.38,4.154,137.322,4.958,136.994z"/>
            <path fill="#7799FF" d="M65.28,225.954c0.933-0.381,1.847-0.797,2.748-1.236c-1.467-2.729-2.307-5.788-2.307-9.109
    c0-4.736,1.708-9.559,4.508-13.858c-4.074-2.377-8.084-4.852-11.814-7.602c-3.833,1.216-7.929,1.86-12.075,1.86
    c-10.765,0-19.479-4.336-24.48-11.803c-3.013,7.293-3.018,15.813,0.565,24.598c0.47,1.15,0.979,2.252,1.526,3.306
    c-5.216,2.062-7.598,0.997-6.839,2.857c0.649,1.592,2.983,3.8,6.928,3.146c0.741-0.123,1.532-0.335,2.386-0.684
    c0.229-0.094,0.454-0.201,0.678-0.309c0.417,0.554,0.847,1.094,1.292,1.609c-1.614,0.448-3.268,0.963-4.788,1.583
    c-2.88,1.176-5.001,2.603-6.479,3.642c1.739-0.398,4.21-0.967,7.091-2.142c1.627-0.664,3.293-1.485,4.868-2.307
    c1.926,2.097,4.08,3.834,6.399,5.242C43.821,229.813,54.411,230.387,65.28,225.954z M53.753,213.754
    c1.28,0,2.316,2.437,2.316,5.444c0,3.005-1.036,5.443-2.316,5.443s-2.317-2.438-2.317-5.443
    C51.436,216.191,52.473,213.754,53.753,213.754z M26.608,214.985c0.417-0.988,0.728-2.255,1.665-2.255
    c1.536,0,1.39-2.933,2.78-2.933s-1.244,4.809-2.78,4.809C27.776,214.606,27.164,214.766,26.608,214.985
            c-0.266,0.633-0.573,1.153-1.115,1.153C24.554,216.138,25.453,215.438,26.608,214.985z"/>
            <path fill="#ECFFCF" d="M15.713,61.077c2.161-0.881,3.996-5.565,3.114-7.727c-0.882-2.162-4.583-2.052-6.743-1.17
            c-2.163,0.882-3.495,2.826-2.613,4.987C10.352,59.329,13.55,61.959,15.713,61.077z"/>
            
            <ellipse transform="matrix(0.9259 -0.3777 0.3777 0.9259 -69.6206 19.7834)" fill="#ECFFCF" cx="15.621" cy="187.368" rx="3.239" ry="0.978"/>
            <path fill="#ECFFCF" d="M94.878,264.442c-2.486-1.222-6.899-2.186-9.259-1.223c-3.243,1.323-0.59,5.459,0.072,7.082
    c0.116,0.284,0.16,0.467,0.176,0.576c0.044-0.296,0.375-1.069,2.145-1.791c1.939-0.792,4.88-1.224,6.795-1.788
            c0.05-0.676,0.103-1.351,0.103-1.948C94.91,265.057,94.896,264.751,94.878,264.442z"/>
            <path fill="#ECFFCF" d="M147.242,280.573c0.694,2.134,1.439,4.181,2.884,3.592c1.988-0.812,5.396-6.661,4.363-9.19
    c-1.031-2.529-7.387-3.906-9.375-3.095c-0.781,0.318-0.898,0.982-0.696,1.822c0.312,1.298,1.397,3.02,2.023,4.556
            C146.725,278.951,146.979,279.767,147.242,280.573z"/>
            <path fill="#ECFFCF" d="M222.593,136.822c-0.031,0.027-0.021,0.054,0.059,0.055c0.176,0.155,0.401,0.191,0.328,0.014
    c-0.01-0.025-0.023-0.047-0.041-0.063c0.196-0.054,0.482-0.149,0.899-0.319c1.142-0.466,3.048-1.393,4.535-2.044
            c-1.626,0.312-3.759,0.683-4.901,1.148C222.332,136.077,222.369,136.562,222.593,136.822z"/>
            <path fill="#FFFFFF" d="M225.059,18.486c0.684,0,2.833-1.451,3.662-1.766c-0.829-0.376-2.979-1.982-3.662-1.982
            c-0.685,0-0.028,1.606,0.259,1.982C225.03,17.036,224.374,18.486,225.059,18.486z"/>
            <path fill="#FFFFFF" d="M229.054,16.733c0-0.102-0.128-0.091-0.333-0.013C228.926,16.814,229.054,16.834,229.054,16.733z"/>
            <path fill="#FFFFFF" d="M95.944,259.731c-1.653,0-1.201,2.483-1.066,4.711c0.019,0.31,0.032,0.615,0.032,0.908
    c0,0.598-0.053,1.272-0.103,1.948c-0.151,2.029-0.276,4.068,1.137,4.068c1.882,0,6.586-3.621,6.586-6.017
            S97.826,259.731,95.944,259.731z"/>
            <path fill="#FFFFFF" d="M227.499,214.776c-0.273-0.234-1.256-0.59-1.256,0.369s0.982,0.873,1.256,0.768
            c0.358,0.105,1.502,0.191,1.502-0.768S227.857,214.542,227.499,214.776z"/>
            <path fill="#FFFFFF" d="M5.152,85.883c1.876,0,6.718-3.778,6.718-4.291c0-0.512-4.841,0.991-6.718,0.991
            c-1.875,0-1.978-1.503-1.978-0.991C3.174,82.105,3.276,85.883,5.152,85.883z"/>
            <path fill="#FFFFFF" d="M48.176,239.299C48.108,239.414,48.138,239.448,48.176,239.299L48.176,239.299z"/>
            <path fill="#FFFFFF" d="M47.267,27.559c0.341,0,0.41-0.249,0.381-0.458c0.385,0.215,0.829,0.325,0.829-0.04
    c0-0.365-0.446-0.269-0.831-0.07c0.032-0.227-0.033-0.496-0.378-0.496c-0.33,0-0.15,0.247,0.159,0.467
            c-0.002,0.03-0.005,0.061-0.005,0.099c0,0.024,0.003,0.04,0.003,0.059C47.114,27.325,46.938,27.559,47.267,27.559z"/>
            <path fill="#FFFFFF" d="M191.34,27.052c2.4,0,5.868-1.956,6.29-4.942c0.028-0.198,0.043-0.401,0.043-0.608
    c0-3.325-3.773-5.562-6.333-5.562c-2.557,0-3.032,2.237-3.032,5.562c0,0.246,0.009,0.473,0.015,0.707
            C188.396,25.132,188.973,27.052,191.34,27.052z"/>
            <path fill="#FFFFFF" d="M5.363,178.547c0,0.527,0.905,0.267,2.546-0.11C6.268,178.171,5.363,178.02,5.363,178.547z"/>
            <path fill="#FFFFFF" d="M50.51,233c-3.071,0-2.287,4.237-2.287,5.772c0,0.271-0.025,0.432-0.047,0.527
            c0.133-0.226,0.658-0.746,2.334-0.746c3.07,0,8.095,1.753,8.095,0.219C58.605,237.237,53.58,233,50.51,233z"/>
            <path id="_24" transform="matrix(0.6881031,-0.3920287,0.8426938,0.89043283,-63.932888,66.14442)"  fill="#AAAAFF" d="M234.607,89.173c0.367-0.716,0.586-1.58,0.586-2.511c0-2.471-1.521-4.473-3.396-4.473
    c-1.717,0-3.133,1.68-3.358,3.859c-2.139-0.723-4.344-1.126-6.522-1.126c-1.13,0-2.226,0.118-3.287,0.324
    c-1.218,0.236-2.391,0.589-3.502,1.064c0.002-0.011,0.008-0.017,0.008-0.03c0-0.713-2.586-2.282-4.398-2.282
    c-1.813,0-2.345,1.569-2.345,2.282c0,0.713,0.531-1.148,2.345-1.148c1.45,0,3.399,1.193,4.114,1.3
    c-3.681,1.652-6.702,4.545-8.734,8.121c-0.945-2.613-2.083-5.131-3.464-7.521c-2.302-3.974-5.077-7.74-8.18-11.284
    c2.092-2.39,3.758-5.458,4.921-9.158c3.087-9.817,1.519-20.46-5.384-26.443c-0.892-0.773-1.875-1.466-2.947-2.071
    c-0.418-0.236-0.848-0.46-1.294-0.668c-0.782-0.365-1.604-0.691-2.472-0.964c-4.719-1.484-9.704-1.227-14.291,0.336
    c-6.485,2.21-12.174,7.037-15.171,13.288c-8.823-2.784-18.5-3.58-28.37-3.779c-1.755-4.216-5.286-6.851-10.856-6.851
    c-5.59,0-9.263,2.653-11.108,6.895c-1.487-0.692-3.126-1.082-4.853-1.082c-4.85,0-9.026,3.045-10.973,7.436
    c-4.053,1.716-8.003,3.721-11.896,5.974c-2.345,1.357-4.73,2.705-7.112,4.077c-1.586-0.652-3.663-1.038-5.742-1.038
    c-4.264,0-8.806,1.615-8.806,3.833c0,1.802,3,2.049,6.412,2.078c-2.538,1.611-5.012,3.296-7.363,5.1
    c-1.559-0.343-3.167-0.532-4.803-0.532c-6.356,0-12.374,2.733-16.568,7.098c-3.719,1.764-6.41,4.993-7.738,9.072
    c-0.434-0.136-0.85-0.218-1.228-0.218c-0.616,0-1.208,0.197-1.764,0.535c-0.923,0.562-1.746,1.514-2.411,2.605
    c-1.078,1.77-1.741,3.904-1.741,5.334c0,2.845,2.618,7.204,5.915,7.204c0.696,0,1.507-0.202,2.352-0.536
    c1.288,2.429,3.147,4.417,5.474,5.788c-0.875,3.162-1.585,6.388-2.13,9.649c-1.879-2.173-4.606-3.695-7.264-3.695
    c-4.732,0-7.63,4.829-7.63,9.563c0,4.732,2.898,6.131,7.63,6.131c2.158,0,4.356-0.296,6.116-1.061
    c-0.049,1.167-0.081,2.333-0.081,3.499c0,3.199,0.203,6.397,0.575,9.574c-0.896,0.444-1.756,0.937-2.583,1.468
    c-0.324-0.333-0.735-0.542-1.19-0.542c-1.031,0-1.865,1.028-1.865,2.295c0,0.171,0.018,0.336,0.047,0.498
    c-5.06,4.411-8.266,10.751-8.922,18.468c-0.083,0.975-0.131,1.967-0.131,2.984c0,1.088,0.05,2.151,0.145,3.189
    c-4.917-0.055-6.5-1.707-6.5,0.056c0,1.789,1.628,5.081,6.746,5.081c0.218,0,0.436-0.015,0.653-0.027
    c0.155,0.591,0.326,1.169,0.516,1.736c-1.459-0.172-2.972-0.302-4.412-0.302c-2.728,0-4.922,0.458-6.466,0.811
    c1.544,0.252,3.739,0.609,6.466,0.609c1.541,0,3.166-0.115,4.716-0.26c0.725,1.954,1.658,3.761,2.768,5.419
    c5.001,7.467,13.715,11.803,24.48,11.803c4.146,0,8.242-0.645,12.075-1.86c3.73,2.75,7.74,5.225,11.814,7.602
    c-2.8,4.3-4.508,9.122-4.508,13.858c0,3.321,0.84,6.38,2.307,9.109c2.442,4.544,6.622,8.18,11.564,10.604
    c-0.55,0.768-0.864,1.679-0.864,2.755c0,1.381,0.512,2.749,1.381,4.024c1.278,1.876,3.331,3.548,5.669,4.763
    c2.404,1.25,5.108,2.017,7.585,2.017c2.724,0,4.971-0.933,6.673-2.409c2.376-2.062,3.685-5.189,3.685-8.395
    c0-0.379-0.021-0.733-0.059-1.071c6.75-2.598,11.581-8.017,13.302-15.288c1.901,0.202,3.838,0.31,5.816,0.31
    c1.759,0,3.508-0.051,5.254-0.133c-0.28,0.876-0.444,1.797-0.444,2.749c0,4.99,4.468,5.643,6.771,5.643
    c2.304,0,5.581-0.652,5.581-5.643c0-1.382-0.257-2.703-0.67-3.899c1.054-0.168,2.1-0.353,3.143-0.552
    c-0.203,0.896-0.313,1.804-0.313,2.712c0,4.921,3.089,9.196,7.756,12.002c3.646,2.191,8.256,3.485,13.109,3.485
    c11.068,0,19.391-6.722,19.391-15.487c0-1.653-0.304-3.298-0.86-4.88c-0.277-0.787-0.612-1.561-1.014-2.309
    c1.923-1.146,3.621-2.466,5.03-3.936c1.948,1.405,4.725,2.573,6.604,2.573c3.153,0,4.896-3.293,4.896-5.476
    s-1.742-0.998-4.896-0.998c-1.043,0-2.362-0.129-3.664-0.222c0.9-1.83,1.403-3.818,1.403-5.945c0-2.43-0.655-4.878-1.812-7.232
    c0.754-0.825,1.49-1.665,2.215-2.512c0.225,0.997,0.913,1.514,2.963,1.514c3.398,0,3.385-1.405,3.385-4.12
    c0-2.354,0.007-2.612-2.203-2.639c2.102-2.854,4.05-5.812,5.816-8.865c3.37-5.825,5.781-12.113,7.425-18.724
    c0.388,0.251,0.8,0.39,1.227,0.39c2.31,0,4.182-4.008,4.182-8.953c0-3.911-1.172-7.228-2.805-8.447
    c0.173-2.476,0.259-4.98,0.286-7.501c0.653,0.115,1.291,0.18,1.885,0.18c4.222,0,6.165-3.21,6.165-5.128
    c0-1.919-1.943-2.684-6.165-2.684c-0.6,0-1.239,0.016-1.896,0.048c-0.022-1.835-0.06-3.672-0.121-5.503
    c2.789,2.458,6.264,4.062,10.154,4.37c0.449,0.036,0.9,0.065,1.36,0.065c0.512,0,1.024-0.029,1.538-0.073
            c6.259-0.534,12.568-4.239,16.546-9.371V94.239C238.493,92.314,236.653,90.595,234.607,89.173z"/>
            <path fill="#FFFFFF" d="M2.688,204.027c0-2.973-0.544-3.87-2.688-4.125v13.254C2.143,211.341,2.688,206.998,2.688,204.027z"/>
            <path fill="#FFFFFF" d="M203.811,16.114c-0.288,0.584-0.451,1.126-0.523,1.625c-0.306,2.106,1.021,3.416,1.485,3.644
    c0.572,0.284,0.016-0.988,1.522-4.041c1.509-3.053,4.516-6.731,3.943-7.015c-0.193-0.095-0.817,0.19-1.613,0.718
            C207.058,12.086,204.812,14.089,203.811,16.114z"/>
            <path fill="#FFFFFF" d="M31.053,209.797c-1.39,0-1.244,2.933-2.78,2.933c-0.937,0-1.248,1.267-1.665,2.255
            c0.556-0.219,1.167-0.379,1.665-0.379C29.809,214.606,32.443,209.797,31.053,209.797z"/>
            <path fill="#FFFFFF" d="M26.608,214.985c-1.155,0.453-2.054,1.153-1.115,1.153C26.036,216.138,26.342,215.618,26.608,214.985z"/>
            <path fill="#FFFFFF" d="M214.504,189.666c0,0.513,0.83,0.928,1.854,0.928c0.255,0,0.497-0.026,0.718-0.072
                  c0.666-0.141,1.134-0.471,1.134-0.855c0-0.512-0.828-0.926-1.852-0.926c-0.303,0-0.584,0.04-0.837,0.104
            C214.92,188.997,214.504,189.305,214.504,189.666z"/>
            <path fill="#FFFFFF" d="M124.576,233.316c0.153,0.053,0.262,0.163,0.262,0.36c0,0.263-0.193,0.384-0.426,0.434
            c0.518,0.064,1.059,0.072,1.059-0.434C125.471,233.225,125.037,233.235,124.576,233.316z"/>
            <path fill="#FFFFFF" d="M203.572,175.744c-0.032,0.015-0.032,0.038,0.032,0.065c0.089,0.185,0.261,0.287,0.261,0.12
    c0-0.024-0.004-0.046-0.013-0.065c0.178,0.022,0.44,0.039,0.835,0.039c1.082,0,2.937-0.122,4.358-0.159
            c-1.422-0.285-3.276-0.69-4.358-0.69C203.608,175.053,203.478,175.458,203.572,175.744z"/>
            <ellipse fill="#FFFFFF" cx="202.136" cy="189.214" rx="2.919" ry="2.3"/>
            <ellipse fill="#FFFFFF" cx="53.753" cy="219.198" rx="2.316" ry="5.444"/>
            <path fill="#FFFFFF" d="M230.788,126.212c0,1.912,1.413,2.569,3.357,2.569c1.945,0,5.618-0.658,5.618-2.569
            s-3.673-3.616-5.618-3.616C232.201,122.596,230.788,124.301,230.788,126.212z"/>
            <path fill="#FFFFFF" d="M123.706,233.464c0.209,0,0.545-0.091,0.87-0.148C124.134,233.16,123.323,233.464,123.706,233.464z"/>
            <path fill="#FFFFFF" d="M124.412,234.11c-0.269-0.031-0.532-0.079-0.706-0.079C123.368,234.031,123.965,234.208,124.412,234.11z"
            />
            <path fill="#FFFFFF" d="M105.264,248.067c0-1.364-1.203-4.66-2.254-4.66c-0.957,0-1.437,2.726-1.515,4.245
    c-0.008,0.149-0.013,0.292-0.013,0.415c0,0.938,0.226,0.473,0.709,0.091c0.219-0.173,0.491-0.329,0.819-0.329
            C104.062,247.829,105.264,249.431,105.264,248.067z"/>
            <ellipse fill="#FFFFFF" cx="120.356" cy="35.368" rx="1.03" ry="0.824"/>
            <ellipse fill="#FFFFFF" cx="35.936" cy="64.4" rx="0.206" ry="0.617"/>
            <path fill="#FFFFFF" d="M21.644,148.237c0-0.474-1.272-0.858-2.84-0.858c-0.769,0-1.464,0.093-1.975,0.243
    c-0.532,0.156-0.866,0.374-0.866,0.615c0,0.28,0.452,0.527,1.141,0.684c0.475,0.108,1.06,0.175,1.7,0.175
            C20.372,149.096,21.644,148.71,21.644,148.237z"/>
            <ellipse fill="#FFFFFF" cx="200.606" cy="38.643" rx="1.854" ry="3.706"/>
            <path fill="#FFFFFF" d="M203.27,59.508c2.11,0,4.093,0.028,4.093-1.061c0-1.088-1.982,0.877-4.093,0.877
            c-0.435,0-0.709-0.085-0.887-0.207C202.079,59.52,201.745,59.508,203.27,59.508z"/>
            <path fill="#FFFFFF" d="M202.383,59.118c0.117-0.156,0.229-0.369,0.229-0.671C202.612,57.583,201.701,58.645,202.383,59.118z"/>
            <ellipse fill="#FFFFFF" cx="54.055" cy="61.517" rx="1.029" ry="0.617"/>
        </g>
    </g>
    
  
    <g id="Layer_2">
        <g>
            <path fill="#3A6E8F" d="M109.267,283.866c-0.004,0.004-0.007,0.008-0.012,0.012c-1.672,1.672-4.382,1.673-6.053,0
    c-1.672-1.672-1.672-4.381,0-6.053c0.003-0.004,0.008-0.008,0.012-0.012l-0.849-0.848c-0.003,0.004-0.008,0.007-0.012,0.011
            c-2.14,2.14-2.14,5.61,0.001,7.75c2.14,2.14,5.609,2.14,7.749-0.001c0.005-0.004,0.008-0.006,0.012-0.012L109.267,283.866z"/>
            <circle fill="#3A6E8F" cx="103.512" cy="276.783" r="0.607"/>
            <circle fill="#3A6E8F" cx="104.801" cy="276.186" r="0.486"/>
            <circle fill="#3A6E8F" cx="105.973" cy="275.977" r="0.388"/>
            <circle fill="#3A6E8F" cx="106.973" cy="276.012" r="0.311"/>
            <circle fill="#3A6E8F" cx="107.78" cy="276.211" r="0.249"/>
            <circle fill="#3A6E8F" cx="108.432" cy="276.481" r="0.199"/>
            <circle fill="#3A6E8F" cx="109.006" cy="276.817" r="0.159"/>
            <circle fill="#3A6E8F" cx="109.517" cy="277.235" r="0.127"/>
        </g>
        <g>
            
            <!--
		141.7 129.915 5.59
		-->
            <!--
		<animateTransform attributeName="transform" type="rotate"
			values="0 117.5 135.75;360 117.5 135.75" begin="0s" dur="1s" repeatCount="indefinite" fill="freeze"/>			
		-->
            <path fill="#3A6E8F" d="M114.976,133.379c0.004-0.004,0.008-0.008,0.012-0.012c1.718-1.72,4.506-1.721,6.224,0
    c1.72,1.719,1.72,4.505,0,6.224c-0.003,0.004-0.008,0.008-0.013,0.012l0.872,0.872c0.005-0.004,0.01-0.007,0.015-0.012
            c2.199-2.2,2.199-5.769-0.002-7.969c-2.2-2.2-5.767-2.2-7.968,0.001c-0.005,0.004-0.008,0.006-0.012,0.012L114.976,133.379z"/>
            <circle fill="#3A6E8F" cx="120.893" cy="140.663" r="0.624"/>
            <circle fill="#3A6E8F" cx="119.567" cy="141.277" r="0.5"/>
            <circle fill="#3A6E8F" cx="118.362" cy="141.492" r="0.399"/>
            <circle fill="#3A6E8F" cx="117.333" cy="141.456" r="0.319"/>
            <circle fill="#3A6E8F" cx="116.504" cy="141.251" r="0.256"/>
            <circle fill="#3A6E8F" cx="115.833" cy="140.973" r="0.205"/>
            <circle fill="#3A6E8F" cx="115.242" cy="140.628" r="0.164"/>
            <circle fill="#3A6E8F" cx="114.718" cy="140.198" r="0.13"/>
        </g>
    </g>
    <g id="Layer_6">
        <g>
            <path fill="#8CC63F" d="M100.571,286.329c0.007,0.008,0.015,0.016,0.022,0.021c3.106,3.107,8.144,3.107,11.252,0
    c3.106-3.105,3.106-8.144,0-11.252c-0.008-0.006-0.016-0.014-0.023-0.02l1.576-1.576c0.008,0.006,0.016,0.014,0.024,0.021
    c3.977,3.978,3.977,10.427-0.001,14.403c-3.977,3.978-10.426,3.978-14.403,0c-0.009-0.007-0.015-0.014-0.022-0.022
            L100.571,286.329z"/>
            <circle fill="#8CC63F" cx="111.265" cy="273.164" r="1.129"/>
            <circle fill="#8CC63F" cx="108.872" cy="272.053" r="0.903"/>
            <circle fill="#8CC63F" cx="106.691" cy="271.665" r="0.722"/>
            <circle fill="#8CC63F" cx="104.833" cy="271.733" r="0.578"/>
            <circle fill="#8CC63F" cx="103.334" cy="272.103" r="0.462"/>
            <circle fill="#8CC63F" cx="102.121" cy="272.602" r="0.37"/>
            <circle fill="#8CC63F" cx="101.054" cy="273.229" r="0.297"/>
            <circle fill="#8CC63F" cx="100.105" cy="274.002" r="0.237"/>
        </g>
    </g>
    <g id="Layer_5">
        <g>
            <path fill="#F38F1D" d="M115.252,289.59c-0.012,0.012-0.022,0.024-0.033,0.037c-4.93,4.928-12.923,4.928-17.854,0
    c-4.931-4.931-4.931-12.924,0-17.854c0.012-0.013,0.024-0.022,0.036-0.034l-2.5-2.501c-0.012,0.013-0.024,0.023-0.037,0.034
    c-6.311,6.312-6.311,16.543,0.001,22.855c6.311,6.312,16.543,6.311,22.854-0.001c0.012-0.011,0.023-0.022,0.035-0.036
            L115.252,289.59z"/>
            <circle fill="#F38F1D" cx="98.283" cy="268.701" r="1.791"/>
            <circle fill="#F38F1D" cx="102.082" cy="266.941" r="1.433"/>
            <circle fill="#F38F1D" cx="105.542" cy="266.323" r="1.146"/>
            <circle fill="#F38F1D" cx="108.491" cy="266.431" r="0.917"/>
            <circle fill="#F38F1D" cx="110.868" cy="267.018" r="0.734"/>
            <circle fill="#F38F1D" cx="112.795" cy="267.809" r="0.587"/>
            <circle fill="#F38F1D" cx="114.486" cy="268.805" r="0.469"/>
            <circle fill="#F38F1D" cx="115.991" cy="270.034" r="0.376"/>
        </g>
        <g>
            <animateTransform attributeName="transform" type="rotate"
                values="0 116.6 136.3;-360 116.6 136.3" begin="0s" dur="1s" repeatCount="indefinite" fill="freeze"/>
            
            <g transform="matrix(0.28381082,0.0,0.0,0.28381082,58.52794,118.246124)"  id="w_thumbsUp_svg_0_0">
                <g id="Calque_1_0">
                    <g id="body_0">
                        <g>
                            <path fill="#22AAFF" stroke="blue" stroke-width="1" d="M169.245,113.537c3.89-2.37,6.63-6.41,6.409-10.01l20.811-23.47c3.311,0.29,6.551-1.011,8.131-0.931
      c3.17,0.28,2.959-0.51,6.479,0.5c3.53,1.08,2.96,1.66,4.899,1.939c2.021,0.291,4.971-1.08,5.4-2.37
      c1.15-3.53,0.58-2.38-0.5-4.32c2.73,0,5.4-2.81,4.891-5.76c-0.57-3.03-1.65-4.39-4.25-5.69c1.159-0.939,3.889-3.89,1.52-7.34
      c-2.811-3.96-4.971-1.37-9-2.45c-4.18-1.079-4.18,0-5.189-3.39c-0.931-3.38,1.869-2.08,0.939-6.26
      c-2.45-10.94-11.52-8.93-14.11-6.84c-1.079,0.939-0.579,2.16,0.142,3.31c1.3,2.38,2.879,11.23,2.449,15.12
      c-0.51,4.54-2.02,3.75-4.109,8.5c-2.08,4.82-1.15,9.72-1.44,12.81l-17.28,22.471c-0.72-3.311-6.399-3.46-11.229-3.53
                            L169.245,113.537z"/>
                            <path fill="#22AAFF" stroke="blue" stroke-width="1" d="M67.365,86.397c-7.34-1.15-9.93,0.569-10.58,2.95c-4.83-0.65-20.09,4.029-22.83,6.119
      c-2.73,2.091-3.88,11.091-4.32,13.46c-0.43,2.381-1.08-1.579-3.67,1.011c-2.52,2.589,0.58,2.31-1.01,3.67
      c-1.51,1.37-1.15-1-3.81,1.08c-2.74,2.02-1.08,1.589-3.31,3.96c-2.31,2.45-13.9-2.73-15.84-2.371
      c-1.88,0.291-3.39,6.411-0.15,7.63c3.311,1.22,11.31,2.81,14.04,3.31c-2.23,1.95-9.569,4.391-11.09,6.271
      c-1.58,1.939-3.09,4.75-2.229,5.76c0.79,1.08,4.18,1.94,8.5,1.94c4.32,0,7.34-6.771,10.44-5.181
      c3.09,1.511,0.72,11.66,0.65,13.891c0,2.229-0.51,4.39,3.09,4.39c3.67,0,3.53-0.64,5.11-4.68c1.52-4.03-0.57-12.601,2.6-14.9
      c3.09-2.229,2.23-2.74,5.04-1.51c2.73,1.15,0.36,2.3,3.67,3.96c8.57,4.32,11.95-2.45,12.09-8.5c0-2.95-2.73-3.17-3.81-3.17
      c-1.01,0-1.87,1.59-3.6,1.59c-1.8,0-3.53-1.37-6.12-3.82c-2.52-2.449-3.82-3.31-3.82-4.609c0-1.221,0.72,0.359,0.871-2.59
      c0.14-2.95-2.09-2.23-1.88-5.4c0.15-3.17,2.88-11.521,4.11-13.82c2.45-1.229,14.33-5.76,17.21-5.62
                            c0.72,1.801,1.22,3.17,6.98,6.341l3.67-11.16L67.365,86.397z"/>
                            <path fill="#FFFFFF" stroke="blue" stroke-width="4.1316" stroke-miterlimit="2.6131" d="M123.165,3.376
      c-12.53,11.88-31.75,36.87-39.17,50.98c-7.48,14.109-18.36,37.87-22.82,54c-4.39,16.2-10.3,37.87-10.66,48.24
      c-0.36,10.369,0,17.779,7.42,17.42c7.49-0.36,5.76-4.101,23.54-12.811c17.79-8.79,27.36-11.24,46.73-6.7
      s24.12,21.53,31.391,20.811c7.279-0.72,12.029-14.979,11.959-39.891c0-24.909-18.15-64.439-22.32-74.88
                            C145.125,50.176,130.584,17.487,123.165,3.376z"/>
                            <path fill="#0F1AFF" stroke="blue" stroke-width="1"  d="M123.165,4.966c-24.91,20.591-47.88,60.551-58.61,92.16c21.1-12.46,83.45-8.279,100.8,2.95
                            C162.044,85.527,132.455,18.136,123.165,4.966z"/>
                            <g>
                                <g>
                                    <g>
                                        <path fill="#AE001D" d="M113.305,60.977c-17.86-0.36-29.81,11.59-29.74,27.43
                                        c0,15.84,12.82,24.92,28.08,24.12c15.27-0.79,31.83-10.8,31.03-25.771C141.814,71.777,131.154,61.336,113.305,60.977z"/>
                                        <path fill="#FFFFFF" d="M101.488,76.43h8.384c0-4.629-3.756-8.385-8.384-8.385
                                        c-4.628,0-8.384,3.756-8.384,8.385c0,4.628,3.756,8.384,8.384,8.384c4.628,0,8.384-3.756,8.384-8.384"/>
                                    </g>
                                </g> 
                                <path fill="none" stroke="#000000" stroke-width="5.8167" stroke-linejoin="round" stroke-miterlimit="2.6131" d="
   M113.305,60.977c-17.86-0.36-29.81,11.59-29.74,27.43c0,15.84,12.82,24.92,28.08,24.12c15.27-0.79,31.83-10.8,31.03-25.771
                                C141.814,71.777,131.154,61.336,113.305,60.977z"/>
                            </g>
                            <path fill="none" stroke="blue" stroke-width="1.6606" stroke-linecap="round" stroke-linejoin="round" stroke-miterlimit="2.6131" d="
                            M219.644,54.567c-3.74,0.291-15.049,0.51-12.17,7.28"/>
                            <path fill="none" stroke="blue" stroke-width="1.2978" stroke-linecap="round" stroke-linejoin="round" stroke-miterlimit="2.6131" d="
                            M220.945,63.426c-11.67-0.939-16.631,2.16-12.6,6.98"/>
                            <path fill="none" stroke="blue" stroke-width="1.4801" stroke-linecap="round" stroke-linejoin="round" stroke-miterlimit="2.6131" d="
                            M220.154,74.586c-3.959-1.729-14.549-4.25-13.25,2.88"/>
                        </g>
                    </g>
                    <g id="tm_0">
                        <path fill="blue" d="M177.773,167.22v7.953h-1.813v-7.953h-1.531v-1.5h4.891v1.5H177.773z"/>
                        <path fill="blue" d="M186.568,175.173c0-0.813-0.017-1.627-0.05-2.444c-0.032-0.817-0.065-1.709-0.098-2.676
                              c-0.033-0.967-0.05-1.745-0.05-2.333l-1.615,7.453h-1.453l-1.511-7.448c-0.009,0.757-0.03,1.573-0.065,2.45
                              c-0.035,0.878-0.07,1.767-0.105,2.667c-0.035,0.901-0.053,1.678-0.053,2.331h-1.75c0-1.046,0.023-2.11,0.069-3.193
                              c0.047-1.083,0.091-1.888,0.133-2.416c0.042-0.527,0.146-1.809,0.314-3.844l2.502,0.001l1.347,6.409l1.421-6.409l2.352-0.001
                        c0.103,1.214,0.194,2.344,0.273,3.389c0.079,1.046,0.14,2.045,0.182,2.998c0.042,0.952,0.063,1.975,0.063,3.066H186.568z"/>
                    </g>
                </g>
            </g>
    
            <g transform="matrix(0.28381082,0.0,0.0,0.28381082,113.52794,96.246124)"  id="w_thumbsUp_svg_0_0_0">
                <g id="Calque_1_0_0">
                    <g id="body_0_0">
                        <g>
                            <path fill="#22AAFF" stroke="blue" stroke-width="1" d="M169.245,113.537c3.89-2.37,6.63-6.41,6.409-10.01l20.811-23.47c3.311,0.29,6.551-1.011,8.131-0.931
      c3.17,0.28,2.959-0.51,6.479,0.5c3.53,1.08,2.96,1.66,4.899,1.939c2.021,0.291,4.971-1.08,5.4-2.37
      c1.15-3.53,0.58-2.38-0.5-4.32c2.73,0,5.4-2.81,4.891-5.76c-0.57-3.03-1.65-4.39-4.25-5.69c1.159-0.939,3.889-3.89,1.52-7.34
      c-2.811-3.96-4.971-1.37-9-2.45c-4.18-1.079-4.18,0-5.189-3.39c-0.931-3.38,1.869-2.08,0.939-6.26
      c-2.45-10.94-11.52-8.93-14.11-6.84c-1.079,0.939-0.579,2.16,0.142,3.31c1.3,2.38,2.879,11.23,2.449,15.12
      c-0.51,4.54-2.02,3.75-4.109,8.5c-2.08,4.82-1.15,9.72-1.44,12.81l-17.28,22.471c-0.72-3.311-6.399-3.46-11.229-3.53
                            L169.245,113.537z"/>
                            <path fill="#22AAFF" stroke="blue" stroke-width="1" d="M67.365,86.397c-7.34-1.15-9.93,0.569-10.58,2.95c-4.83-0.65-20.09,4.029-22.83,6.119
      c-2.73,2.091-3.88,11.091-4.32,13.46c-0.43,2.381-1.08-1.579-3.67,1.011c-2.52,2.589,0.58,2.31-1.01,3.67
      c-1.51,1.37-1.15-1-3.81,1.08c-2.74,2.02-1.08,1.589-3.31,3.96c-2.31,2.45-13.9-2.73-15.84-2.371
      c-1.88,0.291-3.39,6.411-0.15,7.63c3.311,1.22,11.31,2.81,14.04,3.31c-2.23,1.95-9.569,4.391-11.09,6.271
      c-1.58,1.939-3.09,4.75-2.229,5.76c0.79,1.08,4.18,1.94,8.5,1.94c4.32,0,7.34-6.771,10.44-5.181
      c3.09,1.511,0.72,11.66,0.65,13.891c0,2.229-0.51,4.39,3.09,4.39c3.67,0,3.53-0.64,5.11-4.68c1.52-4.03-0.57-12.601,2.6-14.9
      c3.09-2.229,2.23-2.74,5.04-1.51c2.73,1.15,0.36,2.3,3.67,3.96c8.57,4.32,11.95-2.45,12.09-8.5c0-2.95-2.73-3.17-3.81-3.17
      c-1.01,0-1.87,1.59-3.6,1.59c-1.8,0-3.53-1.37-6.12-3.82c-2.52-2.449-3.82-3.31-3.82-4.609c0-1.221,0.72,0.359,0.871-2.59
      c0.14-2.95-2.09-2.23-1.88-5.4c0.15-3.17,2.88-11.521,4.11-13.82c2.45-1.229,14.33-5.76,17.21-5.62
                            c0.72,1.801,1.22,3.17,6.98,6.341l3.67-11.16L67.365,86.397z"/>
                            <path fill="#FFFFFF" stroke="blue" stroke-width="4.1316" stroke-miterlimit="2.6131" d="M123.165,3.376
      c-12.53,11.88-31.75,36.87-39.17,50.98c-7.48,14.109-18.36,37.87-22.82,54c-4.39,16.2-10.3,37.87-10.66,48.24
      c-0.36,10.369,0,17.779,7.42,17.42c7.49-0.36,5.76-4.101,23.54-12.811c17.79-8.79,27.36-11.24,46.73-6.7
      s24.12,21.53,31.391,20.811c7.279-0.72,12.029-14.979,11.959-39.891c0-24.909-18.15-64.439-22.32-74.88
                            C145.125,50.176,130.584,17.487,123.165,3.376z"/>
                            <path fill="#0F1AFF" stroke="blue" stroke-width="1"  d="M123.165,4.966c-24.91,20.591-47.88,60.551-58.61,92.16c21.1-12.46,83.45-8.279,100.8,2.95
                            C162.044,85.527,132.455,18.136,123.165,4.966z"/>
                            <g>
                                <g>
                                    <g>
                                        <path fill="#AE001D" d="M113.305,60.977c-17.86-0.36-29.81,11.59-29.74,27.43
                                        c0,15.84,12.82,24.92,28.08,24.12c15.27-0.79,31.83-10.8,31.03-25.771C141.814,71.777,131.154,61.336,113.305,60.977z"/>
                                        <path fill="#FFFFFF" d="M101.488,76.43h8.384c0-4.629-3.756-8.385-8.384-8.385
                                        c-4.628,0-8.384,3.756-8.384,8.385c0,4.628,3.756,8.384,8.384,8.384c4.628,0,8.384-3.756,8.384-8.384"/>
                                    </g>
                                </g> 
                                <path fill="none" stroke="#000000" stroke-width="5.8167" stroke-linejoin="round" stroke-miterlimit="2.6131" d="
   M113.305,60.977c-17.86-0.36-29.81,11.59-29.74,27.43c0,15.84,12.82,24.92,28.08,24.12c15.27-0.79,31.83-10.8,31.03-25.771
                                C141.814,71.777,131.154,61.336,113.305,60.977z"/>
                            </g>
                            <path fill="none" stroke="blue" stroke-width="1.6606" stroke-linecap="round" stroke-linejoin="round" stroke-miterlimit="2.6131" d="
                            M219.644,54.567c-3.74,0.291-15.049,0.51-12.17,7.28"/>
                            <path fill="none" stroke="blue" stroke-width="1.2978" stroke-linecap="round" stroke-linejoin="round" stroke-miterlimit="2.6131" d="
                            M220.945,63.426c-11.67-0.939-16.631,2.16-12.6,6.98"/>
                            <path fill="none" stroke="blue" stroke-width="1.4801" stroke-linecap="round" stroke-linejoin="round" stroke-miterlimit="2.6131" d="
                            M220.154,74.586c-3.959-1.729-14.549-4.25-13.25,2.88"/>
                        </g>
                    </g>
                    <g id="tm_0_0">
                        <path fill="blue" d="M177.773,167.22v7.953h-1.813v-7.953h-1.531v-1.5h4.891v1.5H177.773z"/>
                        <path fill="blue" d="M186.568,175.173c0-0.813-0.017-1.627-0.05-2.444c-0.032-0.817-0.065-1.709-0.098-2.676
                              c-0.033-0.967-0.05-1.745-0.05-2.333l-1.615,7.453h-1.453l-1.511-7.448c-0.009,0.757-0.03,1.573-0.065,2.45
                              c-0.035,0.878-0.07,1.767-0.105,2.667c-0.035,0.901-0.053,1.678-0.053,2.331h-1.75c0-1.046,0.023-2.11,0.069-3.193
                              c0.047-1.083,0.091-1.888,0.133-2.416c0.042-0.527,0.146-1.809,0.314-3.844l2.502,0.001l1.347,6.409l1.421-6.409l2.352-0.001
                        c0.103,1.214,0.194,2.344,0.273,3.389c0.079,1.046,0.14,2.045,0.182,2.998c0.042,0.952,0.063,1.975,0.063,3.066H186.568z"/>
                    </g>
                </g>
            </g>
    
        </g>
    </g>
    <g id="Layer_3">
        <g>
            <path fill="#3A6E8F" d="M68.711,278.827c0-1.506-0.049-2.765-0.099-3.851h3.185l0.148,1.654h0.074
    c0.519-0.79,1.605-1.926,3.654-1.926c1.58,0,2.79,0.815,3.308,2.074h0.049c0.469-0.642,0.987-1.136,1.58-1.481
    c0.667-0.371,1.407-0.593,2.296-0.593c2.32,0,4.073,1.63,4.073,5.233v7.109h-3.653v-6.541c0-1.753-0.568-2.766-1.778-2.766
    c-0.888,0-1.481,0.593-1.752,1.309c-0.074,0.271-0.123,0.643-0.123,0.938v7.06h-3.654v-6.764c0-1.506-0.543-2.543-1.753-2.543
            c-0.963,0-1.531,0.741-1.753,1.334c-0.123,0.296-0.148,0.642-0.148,0.963v7.01h-3.654V278.827z"/>
        </g>
        <g>
            <path fill="#3A6E8F" d="M121.47,269.521h3.753v6.888h0.049c0.715-1.037,1.975-1.704,3.654-1.704c2.887,0,4.986,2.395,4.961,6.098
    c0,4.345-2.74,6.517-5.504,6.517c-1.408,0-2.791-0.518-3.629-1.949h-0.049l-0.15,1.678h-3.184
    c0.049-0.789,0.099-2.246,0.099-3.604V269.521z M125.223,281.913c0,0.248,0.025,0.47,0.074,0.668
    c0.246,0.986,1.111,1.777,2.195,1.777c1.605,0,2.594-1.235,2.594-3.408c0-1.875-0.84-3.356-2.594-3.356
            c-1.012,0-1.949,0.765-2.195,1.852c-0.049,0.222-0.074,0.444-0.074,0.69V281.913z"/>
            <path fill="#3A6E8F" d="M137.836,273.396c-1.258,0-2.072-0.888-2.072-1.999c0-1.136,0.838-2,2.121-2c1.285,0,2.074,0.864,2.1,2
            c0,1.111-0.814,1.999-2.123,1.999H137.836z M135.984,287.047v-12.071h3.754v12.071H135.984z"/>
            <path fill="#3A6E8F" d="M142.502,269.521h3.754v17.526h-3.754V269.521z"/>
            <path fill="#3A6E8F" d="M150.871,273.396c-1.26,0-2.074-0.888-2.074-1.999c0-1.136,0.84-2,2.123-2s2.074,0.864,2.098,2
            c0,1.111-0.814,1.999-2.123,1.999H150.871z M149.02,287.047v-12.071h3.752v12.071H149.02z"/>
            <path fill="#3A6E8F" d="M159.732,271.694v3.282h2.691v2.765h-2.691v4.395c0,1.457,0.371,2.123,1.482,2.123
    c0.518,0,0.764-0.024,1.109-0.099l0.025,2.839c-0.469,0.174-1.383,0.32-2.42,0.32c-1.209,0-2.223-0.419-2.838-1.036
            c-0.691-0.716-1.037-1.876-1.037-3.579v-4.963h-1.605v-2.765h1.605v-2.271L159.732,271.694z"/>
            <path fill="#3A6E8F" d="M167.309,274.976l1.801,5.925c0.197,0.717,0.445,1.605,0.592,2.247h0.074
    c0.174-0.642,0.371-1.556,0.543-2.247l1.482-5.925h4.023l-2.814,7.949c-1.729,4.79-2.889,6.69-4.246,7.899
    c-1.283,1.136-2.666,1.557-3.629,1.654l-0.789-3.16c0.469-0.099,1.061-0.32,1.629-0.642c0.568-0.296,1.209-0.913,1.555-1.505
            c0.123-0.198,0.197-0.371,0.197-0.544c0-0.123-0.023-0.321-0.148-0.618l-4.443-11.034H167.309z"/>
        </g>
    </g>
    <g id="Layer_4">
        <g>
            <path fill="#3A6E8F" d="M121.348,265.988v-8.601h1.688l3.529,5.756v-5.756h1.611v8.601h-1.74l-3.477-5.636v5.636H121.348z"/>
            <path fill="#3A6E8F" d="M133.611,264l1.646,0.273c-0.211,0.604-0.545,1.062-1.002,1.378c-0.455,0.315-1.023,0.473-1.709,0.473
    c-1.082,0-1.885-0.353-2.404-1.06c-0.41-0.566-0.617-1.281-0.617-2.145c0-1.031,0.27-1.838,0.811-2.422
    c0.539-0.584,1.221-0.875,2.045-0.875c0.928,0,1.658,0.305,2.193,0.916s0.791,1.549,0.768,2.81h-4.129
    c0.012,0.487,0.145,0.865,0.4,1.136c0.254,0.271,0.57,0.406,0.949,0.406c0.258,0,0.475-0.07,0.65-0.211
    S133.521,264.313,133.611,264z M133.707,262.338c-0.012-0.476-0.135-0.838-0.369-1.084c-0.236-0.248-0.521-0.372-0.857-0.372
            c-0.359,0-0.656,0.13-0.891,0.392c-0.236,0.262-0.35,0.615-0.348,1.064H133.707z"/>
            <path fill="#3A6E8F" d="M139.521,259.751v1.311H138.4v2.513c0,0.508,0.01,0.805,0.031,0.889s0.07,0.154,0.146,0.209
    s0.17,0.082,0.277,0.082c0.152,0,0.373-0.053,0.662-0.158l0.141,1.281c-0.381,0.165-0.812,0.247-1.297,0.247
    c-0.295,0-0.562-0.05-0.801-0.149c-0.236-0.1-0.41-0.229-0.521-0.388c-0.111-0.159-0.188-0.373-0.23-0.644
            c-0.035-0.191-0.053-0.579-0.053-1.162v-2.72h-0.754v-1.311h0.754v-1.233l1.645-0.969v2.202H139.521z"/>
            <path fill="#3A6E8F" d="M140.703,257.387h3.436c0.68,0,1.188,0.028,1.521,0.085s0.633,0.175,0.896,0.354s0.484,0.419,0.66,0.719
    c0.176,0.299,0.264,0.634,0.264,1.006c0,0.402-0.109,0.771-0.326,1.107s-0.51,0.588-0.881,0.756
    c0.521,0.152,0.924,0.413,1.205,0.781c0.281,0.367,0.422,0.801,0.422,1.297c0,0.392-0.092,0.771-0.273,1.143
    c-0.182,0.369-0.43,0.665-0.744,0.886c-0.314,0.222-0.701,0.356-1.164,0.407c-0.289,0.032-0.984,0.052-2.092,0.06h-2.924V257.387z
    M142.443,258.818v1.987h1.137c0.674,0,1.094-0.01,1.258-0.029c0.297-0.035,0.529-0.138,0.699-0.309
    c0.17-0.17,0.256-0.393,0.256-0.67c0-0.267-0.074-0.482-0.221-0.648s-0.363-0.268-0.652-0.302
    c-0.172-0.021-0.666-0.029-1.482-0.029H142.443z M142.443,262.236v2.296h1.604c0.625,0,1.021-0.018,1.189-0.053
    c0.258-0.047,0.467-0.161,0.631-0.343c0.16-0.182,0.242-0.425,0.242-0.729c0-0.258-0.062-0.477-0.188-0.656
            s-0.305-0.31-0.541-0.392s-0.75-0.123-1.539-0.123H142.443z"/>
            <path fill="#3A6E8F" d="M152.969,264l1.645,0.273c-0.211,0.604-0.545,1.062-1,1.378s-1.025,0.473-1.711,0.473
    c-1.082,0-1.885-0.353-2.404-1.06c-0.41-0.566-0.615-1.281-0.615-2.145c0-1.031,0.27-1.838,0.809-2.422s1.221-0.875,2.047-0.875
                  c0.926,0,1.656,0.305,2.191,0.916c0.537,0.611,0.793,1.549,0.77,2.81h-4.129c0.012,0.487,0.145,0.865,0.398,1.136
                  c0.254,0.271,0.57,0.406,0.949,0.406c0.258,0,0.477-0.07,0.652-0.211C152.744,264.54,152.879,264.313,152.969,264z
                  M153.062,262.338c-0.012-0.476-0.135-0.838-0.369-1.084c-0.234-0.248-0.521-0.372-0.857-0.372c-0.359,0-0.656,0.13-0.891,0.392
            s-0.35,0.615-0.346,1.064H153.062z"/>
            <path fill="#3A6E8F" d="M157.275,261.662l-1.498-0.266c0.168-0.603,0.457-1.05,0.869-1.339c0.41-0.289,1.021-0.434,1.832-0.434
                  c0.736,0,1.285,0.086,1.645,0.26c0.361,0.174,0.615,0.395,0.762,0.662s0.221,0.76,0.221,1.475l-0.027,1.922
                  c0,0.548,0.027,0.951,0.08,1.211s0.152,0.538,0.297,0.835h-1.627c-0.043-0.11-0.096-0.274-0.158-0.491
                  c-0.027-0.098-0.047-0.162-0.059-0.194c-0.281,0.274-0.584,0.479-0.904,0.616c-0.322,0.138-0.664,0.206-1.027,0.206
                  c-0.643,0-1.148-0.173-1.52-0.521c-0.369-0.348-0.555-0.787-0.555-1.318c0-0.351,0.084-0.664,0.252-0.938
                  c0.168-0.275,0.404-0.486,0.707-0.632c0.303-0.146,0.74-0.274,1.311-0.385c0.771-0.144,1.305-0.277,1.602-0.403v-0.165
                  c0-0.316-0.078-0.542-0.232-0.678c-0.158-0.135-0.451-0.202-0.885-0.202c-0.293,0-0.521,0.058-0.686,0.173
                  S157.377,261.373,157.275,261.662z M159.477,262.999c-0.211,0.07-0.545,0.153-1.004,0.25c-0.459,0.098-0.758,0.193-0.898,0.287
                  c-0.217,0.151-0.324,0.344-0.324,0.578c0,0.229,0.086,0.428,0.26,0.595c0.172,0.167,0.391,0.251,0.658,0.251
            c0.297,0,0.58-0.098,0.852-0.291c0.199-0.148,0.33-0.33,0.393-0.544c0.043-0.14,0.064-0.406,0.064-0.8V262.999z"/>
            <path fill="#3A6E8F" d="M168.385,265.988h-1.645v-3.177c0-0.672-0.035-1.107-0.105-1.305c-0.072-0.197-0.188-0.351-0.346-0.461
                  c-0.16-0.109-0.352-0.163-0.576-0.163c-0.287,0-0.545,0.078-0.773,0.234s-0.385,0.363-0.471,0.621
                  c-0.084,0.258-0.127,0.735-0.127,1.431v2.819h-1.645v-6.236h1.533v0.915c0.545-0.695,1.23-1.043,2.057-1.043
                  c0.365,0,0.697,0.064,1,0.195c0.301,0.131,0.529,0.299,0.684,0.502c0.156,0.203,0.264,0.434,0.324,0.691s0.09,0.627,0.09,1.107
            V265.988z"/>
            <path fill="#3A6E8F" d="M169.479,264.206l1.652-0.248c0.07,0.319,0.215,0.562,0.428,0.729c0.215,0.165,0.518,0.248,0.904,0.248
                  c0.426,0,0.746-0.078,0.961-0.234c0.145-0.109,0.219-0.256,0.219-0.439c0-0.125-0.041-0.229-0.119-0.311
                  c-0.082-0.078-0.266-0.149-0.551-0.216c-1.328-0.294-2.17-0.561-2.525-0.803c-0.492-0.336-0.738-0.802-0.738-1.399
                  c0-0.539,0.213-0.991,0.639-1.358c0.426-0.366,1.086-0.55,1.98-0.55c0.852,0,1.482,0.139,1.896,0.415
                  c0.414,0.277,0.699,0.687,0.855,1.229l-1.549,0.291c-0.066-0.243-0.193-0.43-0.379-0.56s-0.449-0.194-0.793-0.194
                  c-0.432,0-0.742,0.061-0.93,0.182c-0.125,0.086-0.188,0.197-0.188,0.334c0,0.117,0.055,0.217,0.164,0.298
                  c0.148,0.11,0.662,0.265,1.537,0.464c0.877,0.199,1.488,0.442,1.836,0.731c0.344,0.294,0.516,0.701,0.516,1.226
                  c0,0.569-0.238,1.061-0.715,1.471c-0.479,0.409-1.184,0.614-2.117,0.614c-0.85,0-1.52-0.173-2.014-0.517
            C169.953,265.264,169.631,264.797,169.479,264.206z"/>
        </g>
    </g>
    <path id="_92" transform="translate(0.0,0.0)"  fill="#FFFFFF" stroke="#3A6E8F" d="M221.018,103.617c0,4.89-3.964,8.853-8.854,8.853H27.575
          c-4.889,0-8.853-3.963-8.853-8.853l0,0c0-4.889,3.963-8.853,8.853-8.853h184.589C217.054,94.765,221.018,98.729,221.018,103.617
    L221.018,103.617z"/>
    
    <text id="_0" x="40.243202"  y="108.1177" font-size="12">R E T R E I V I N G    D A T A</text>
    
</svg>
